<svg xmlns="http://www.w3.org/2000/svg" viewBox="0 0 25 25"><defs><style>.cls-1{fill:#82d5e8;}</style></defs><title>Group 213</title><g id="圖層_2" data-name="圖層 2"><g id="圖層_1-2" data-name="圖層 1"><g id="Group_213" data-name="Group 213"><g id="Group_211" data-name="Group 211"><path id="Path_152" data-name="Path 152" class="cls-1" d="M15.9,8a3.61,3.61,0,0,0-1.39-1.43A4.19,4.19,0,0,0,12.41,6,4.84,4.84,0,0,0,10,6.6a2.61,2.61,0,0,0-.87.75A.46.46,0,0,0,9.11,8l.06.06.85.68a.45.45,0,0,0,.58,0A1.13,1.13,0,0,1,11,8.34,2.76,2.76,0,0,1,12.41,8a2.12,2.12,0,0,1,1.36.49,1.87,1.87,0,0,1,.36.43,1,1,0,0,1,.1.37,1.57,1.57,0,0,1-.16.71,1.41,1.41,0,0,1-.27.37,3.22,3.22,0,0,1-.68.48c-.26.15-.54.28-.83.44a2.65,2.65,0,0,0-.93.83,2.23,2.23,0,0,0-.29.65,2.57,2.57,0,0,0-.1.73V14a.47.47,0,0,0,.46.46h1.1A.46.46,0,0,0,13,14h0V13.5a.69.69,0,0,1,0-.2.37.37,0,0,1,.05-.11,1,1,0,0,1,.2-.15c.17-.09.43-.21.73-.38a4.82,4.82,0,0,0,1.45-1.12,3.27,3.27,0,0,0,.57-1,3.59,3.59,0,0,0,.22-1.26A2.78,2.78,0,0,0,15.9,8Z"/><path id="Path_153" data-name="Path 153" class="cls-1" d="M12,15.53a1.24,1.24,0,1,0,1.24,1.23h0A1.23,1.23,0,0,0,12,15.53Z"/></g><g id="Group_212" data-name="Group 212"><path id="Path_149" data-name="Path 149" class="cls-1" d="M12.5,0A12.5,12.5,0,1,0,25,12.5h0A12.52,12.52,0,0,0,12.5,0Zm0,22.76A10.26,10.26,0,1,1,22.76,12.5h0A10.27,10.27,0,0,1,12.5,22.76Z"/></g></g></g></g></svg>