<svg xmlns="http://www.w3.org/2000/svg" xmlns:xlink="http://www.w3.org/1999/xlink" viewBox="0 0 31.28 35.7"><defs><style>.cls-1{fill:url(#未命名漸層_401);}</style><linearGradient id="未命名漸層_401" x1="-218.48" y1="284.06" x2="-218.48" y2="286.46" gradientTransform="matrix(13, 0, 0, -14.83, 2855, 4249.38)" gradientUnits="userSpaceOnUse"><stop offset="0.01" stop-color="#4b4b4b"/><stop offset="1" stop-color="#6e6e6e"/></linearGradient></defs><title>Group 117-10</title><g id="圖層_2" data-name="圖層 2"><g id="圖層_1-2" data-name="圖層 1"><g id="Group_117-10" data-name="Group 117-10"><path id="Path_90-118" data-name="Path 90-118" class="cls-1" d="M23.28,12.73a8,8,0,0,0-1.29.11,8,8,0,1,0-12.72,0A8,8,0,0,0,6.8,28.71a6.64,6.64,0,0,0,1.18.1,8,8,0,0,0,6.14-2.89,37,37,0,0,1-1.84,9.78H19a37,37,0,0,1-1.83-9.78,8,8,0,1,0,6.13-13.18Z"/></g></g></g></svg>