<svg xmlns="http://www.w3.org/2000/svg" xmlns:xlink="http://www.w3.org/1999/xlink" viewBox="0 0 16.87 19.25"><defs><style>.cls-1{fill:url(#未命名漸層_401);}</style><linearGradient id="未命名漸層_401" x1="-331.25" y1="213.8" x2="-331.25" y2="216.21" gradientTransform="matrix(7.01, 0, 0, -8, 2329.8, 1729.5)" gradientUnits="userSpaceOnUse"><stop offset="0.01" stop-color="#4b4b4b"/><stop offset="1" stop-color="#6e6e6e"/></linearGradient></defs><title>icon 13999-81</title><g id="圖層_2" data-name="圖層 2"><g id="圖層_1-2" data-name="圖層 1"><g id="icon_13999-81" data-name="icon 13999-81"><g id="Group_15-81" data-name="Group 15-81"><path id="Path_85-81" data-name="Path 85-81" class="cls-1" d="M8.75.24C8.64.11,8.66.12,8.66.12a.29.29,0,0,0-.4-.07L8.19.12s0,0-.09.12C5.25,3.57,0,5.45,0,10.24A6.61,6.61,0,0,0,0,11a4.43,4.43,0,0,0,4.33,4.41,3.94,3.94,0,0,0,3.13-2c-.36,2.33-.82,4.92-1,5.24-.22.55,0,.64.18.64h3.44c.13,0,.4-.09.18-.64-.13-.32-.6-2.91-1-5.24a4,4,0,0,0,3.13,2A4.44,4.44,0,0,0,16.84,11c0-.26,0-.52,0-.76C16.85,5.45,11.6,3.57,8.75.24Z"/></g></g></g></g></svg>