<svg xmlns="http://www.w3.org/2000/svg" xmlns:xlink="http://www.w3.org/1999/xlink" viewBox="0 0 19.34 16.5"><defs><style>.cls-1{fill:url(#未命名漸層_178);}</style><linearGradient id="未命名漸層_178" x1="-292.29" y1="162.55" x2="-292.29" y2="164.95" gradientTransform="matrix(8.04, 0, 0, -6.86, 2358.8, 1131.01)" gradientUnits="userSpaceOnUse"><stop offset="0.01" stop-color="#e54254"/><stop offset="1" stop-color="#ff94a6"/></linearGradient></defs><title>icon 14002</title><g id="圖層_2" data-name="圖層 2"><g id="圖層_1-2" data-name="圖層 1"><g id="icon_14002" data-name="icon 14002"><g id="Group_22" data-name="Group 22"><path id="Path_89" data-name="Path 89" class="cls-1" d="M14.36,0A4.65,4.65,0,0,0,9.67,3.94,4.62,4.62,0,0,0,5,0,5,5,0,0,0,0,5.06a4.62,4.62,0,0,0,.05.65c0,4.78,5.51,7,9.28,10.55.13.13.1.13.1.13a.32.32,0,0,0,.24.11h0a.3.3,0,0,0,.24-.11s0,0,.1-.13c3.77-3.56,9.29-5.77,9.29-10.55A5,5,0,0,0,15,.05,4.48,4.48,0,0,0,14.36,0Z"/></g></g></g></g></svg>