<svg xmlns="http://www.w3.org/2000/svg" viewBox="0 0 27.13 22.25"><defs><style>.cls-1{fill:#82d5e8;}</style></defs><title>icon 10058</title><g id="圖層_2" data-name="圖層 2"><g id="圖層_1-2" data-name="圖層 1"><g id="icon_10058" data-name="icon 10058"><g id="Group_217" data-name="Group 217"><path id="Path_177" data-name="Path 177" class="cls-1" d="M1.8,12.29a.1.1,0,0,0-.12,0,.11.11,0,0,0-.06.1l.17,2.68a.1.1,0,0,1-.07.11l-1.65.66a.13.13,0,0,0-.07.09.1.1,0,0,0,.05.1l4.44,2.7a.11.11,0,0,0,.11,0,.11.11,0,0,0,.07-.08l.66-3.81a.09.09,0,0,0,0-.1Z"/><path id="Path_178" data-name="Path 178" class="cls-1" d="M25.4,15.17a.11.11,0,0,1-.07-.11l.17-2.67a.1.1,0,0,0-.1-.12.11.11,0,0,0-.08,0l-3.49,2.45a.1.1,0,0,0,0,.1l.67,3.81a.1.1,0,0,0,.07.08.09.09,0,0,0,.1,0L27.08,16a.1.1,0,0,0,0-.1.11.11,0,0,0-.06-.09Z"/><path id="Path_179" data-name="Path 179" class="cls-1" d="M13.56,18.35A16.16,16.16,0,0,1,6.4,16.7l-.7,4a20.2,20.2,0,0,0,15.71,0l-.7-4A16.09,16.09,0,0,1,13.56,18.35Z"/><path id="Path_180" data-name="Path 180" class="cls-1" d="M4,7.45l.35.69.77.12-.56.54.13.77L4,9.2l-.69.37.13-.77-.56-.54.77-.12Z"/><path id="Path_181" data-name="Path 181" class="cls-1" d="M7.27,1.94l.35.69.77.12-.56.54L8,4.06l-.68-.37-.69.37.13-.77-.56-.54.77-.12Z"/><path id="Path_182" data-name="Path 182" class="cls-1" d="M23.15,7.45l-.34.69L22,8.26l.56.54-.14.77.69-.37.69.37-.13-.77.55-.54-.77-.12Z"/><path id="Path_183" data-name="Path 183" class="cls-1" d="M19.84,1.94l-.34.69-.77.12.56.54-.14.77.69-.37.69.37-.14-.77L21,2.75l-.77-.12Z"/><path id="Path_184" data-name="Path 184" class="cls-1" d="M13.32,0l.34.7.78.11-.56.54.13.77-.69-.36-.69.36.14-.77L12.21.81,13,.7Z"/><path id="Path_185" data-name="Path 185" class="cls-1" d="M12.5,4.41a1.06,1.06,0,0,1,1.41-.48,1.11,1.11,0,0,1,.48.48l1,2.11a1.05,1.05,0,0,0,.79.58l2.33.34a1,1,0,0,1,.89,1.19,1,1,0,0,1-.31.6l-1.68,1.64a1.07,1.07,0,0,0-.31.93l.41,2.33a1.06,1.06,0,0,1-.86,1.21,1,1,0,0,1-.67-.11l-2.09-1.1a1,1,0,0,0-1,0l-2.09,1.1a1,1,0,0,1-1.42-.44,1.08,1.08,0,0,1-.1-.66l.4-2.33a1,1,0,0,0-.3-.93L7.76,9.23a1.06,1.06,0,0,1,0-1.49,1,1,0,0,1,.6-.3l2.34-.34a1.07,1.07,0,0,0,.79-.58Z"/></g></g></g></g></svg>