<svg xmlns="http://www.w3.org/2000/svg" xmlns:xlink="http://www.w3.org/1999/xlink" viewBox="0 0 31.29 41.7"><defs><style>.cls-1{fill:url(#未命名漸層_178);}</style><linearGradient id="未命名漸層_178" x1="-321.55" y1="269.8" x2="-321.55" y2="272.21" gradientTransform="matrix(13, 0, 0, -17.33, 4196.16, 4716.5)" gradientUnits="userSpaceOnUse"><stop offset="0.01" stop-color="#e54254"/><stop offset="1" stop-color="#ff94a6"/></linearGradient></defs><title>icon 14017-73</title><g id="圖層_2" data-name="圖層 2"><g id="圖層_1-2" data-name="圖層 1"><g id="icon_14017-73" data-name="icon 14017-73"><g id="Group_18-73" data-name="Group 18-73"><path id="Path_88-73" data-name="Path 88-73" class="cls-1" d="M31.12,20.61C27.55,17.94,17.85,5.51,16,.45,15.9.16,15.81,0,15.64,0s-.25.16-.36.45C13.44,5.51,3.75,17.94.17,20.61a.46.46,0,0,0-.17.24.46.46,0,0,0,.17.24c3.58,2.67,13.27,15.1,15.11,20.16.11.3.2.45.36.45s.26-.15.37-.45c1.84-5,11.54-17.49,15.11-20.16a.46.46,0,0,0,.17-.24A.46.46,0,0,0,31.12,20.61Z"/></g></g></g></g></svg>