<svg xmlns="http://www.w3.org/2000/svg" viewBox="0 0 25 23.05"><defs><style>.cls-1{fill:#82d5e8;}</style></defs><title>icon 11972</title><g id="圖層_2" data-name="圖層 2"><g id="圖層_1-2" data-name="圖層 1"><g id="icon_11972" data-name="icon 11972"><g id="Group_210" data-name="Group 210"><path id="Path_150" data-name="Path 150" class="cls-1" d="M21.78,3.53A11.49,11.49,0,0,0,14,0a1.4,1.4,0,0,0-.12,2.79,8.73,8.73,0,1,1-9.1,8.73c0-.17,0-.34,0-.51l1.66.82a.61.61,0,0,0,.56,0,.46.46,0,0,0,.25-.43L7.06,4.08a.61.61,0,0,0-.35-.51.58.58,0,0,0-.61,0L.2,7.94A.44.44,0,0,0,0,8.4a.59.59,0,0,0,.34.44l1.74.86A11.52,11.52,0,1,0,21.78,3.53Z"/></g></g></g></g></svg>