<svg xmlns="http://www.w3.org/2000/svg" xmlns:xlink="http://www.w3.org/1999/xlink" viewBox="0 0 16.25 21.68"><defs><style>.cls-1{fill:url(#未命名漸層_178);}</style><linearGradient id="未命名漸層_178" x1="-369.64" y1="197.94" x2="-369.64" y2="200.35" gradientTransform="matrix(6.75, 0, 0, -9.01, 2503.2, 1804.33)" gradientUnits="userSpaceOnUse"><stop offset="0.01" stop-color="#e54254"/><stop offset="1" stop-color="#ff94a6"/></linearGradient></defs><title>icon 14017-64</title><g id="圖層_2" data-name="圖層 2"><g id="圖層_1-2" data-name="圖層 1"><g id="icon_14017-64" data-name="icon 14017-64"><g id="Group_18-64" data-name="Group 18-64"><path id="Path_88-64" data-name="Path 88-64" class="cls-1" d="M16.16,10.71A39.42,39.42,0,0,1,8.31.24C8.26.09,8.21,0,8.12,0S8,.08,7.94.24A39.64,39.64,0,0,1,.09,10.71a.24.24,0,0,0-.09.13A.24.24,0,0,0,.09,11,39.32,39.32,0,0,1,7.94,21.44c0,.15.1.24.18.24s.14-.09.19-.24A39.11,39.11,0,0,1,16.16,11a.3.3,0,0,0,.09-.13A.3.3,0,0,0,16.16,10.71Z"/></g></g></g></g></svg>