<svg xmlns="http://www.w3.org/2000/svg" xmlns:xlink="http://www.w3.org/1999/xlink" viewBox="0 0 31.3 35.76"><defs><style>.cls-1{fill:url(#未命名漸層_401);}</style><linearGradient id="未命名漸層_401" x1="-272.78" y1="276.05" x2="-272.78" y2="278.45" gradientTransform="matrix(13, 0, 0, -14.86, 3562.62, 4137.28)" gradientUnits="userSpaceOnUse"><stop offset="0.01" stop-color="#4b4b4b"/><stop offset="1" stop-color="#6e6e6e"/></linearGradient></defs><title>icon 13999-73</title><g id="圖層_2" data-name="圖層 2"><g id="圖層_1-2" data-name="圖層 1"><g id="icon_13999-73" data-name="icon 13999-73"><g id="Group_15-73" data-name="Group 15-73"><path id="Path_85-73" data-name="Path 85-73" class="cls-1" d="M16.25.45C16,.2,16.08.22,16.08.22A.54.54,0,0,0,15.33.1a.68.68,0,0,0-.12.12s0,0-.17.23C9.74,6.62,0,10.12,0,19c0,.46,0,.93.06,1.43a8.22,8.22,0,0,0,8,8.18,7.3,7.3,0,0,0,5.79-3.79c-.67,4.33-1.52,9.15-1.76,9.75-.41,1,.08,1.18.32,1.18h6.4c.24,0,.74-.17.33-1.18-.24-.6-1.1-5.41-1.77-9.75a7.29,7.29,0,0,0,5.81,3.79,8.23,8.23,0,0,0,8-8.19c0-.49.06-1,.06-1.42C31.29,10.12,21.54,6.62,16.25.45Z"/></g></g></g></g></svg>