<svg xmlns="http://www.w3.org/2000/svg" xmlns:xlink="http://www.w3.org/1999/xlink" viewBox="0 0 37.49 32.14"><defs><style>.cls-1{fill:url(#未命名漸層_178);}</style><linearGradient id="未命名漸層_178" x1="-356.72" y1="248.37" x2="-356.72" y2="250.77" gradientTransform="matrix(15.58, 0, 0, -13.35, 5575.78, 3348.84)" gradientUnits="userSpaceOnUse"><stop offset="0.01" stop-color="#e54254"/><stop offset="1" stop-color="#ff94a6"/></linearGradient></defs><title>icon 14002-70</title><g id="圖層_2" data-name="圖層 2"><g id="圖層_1-2" data-name="圖層 1"><g id="icon_14002-70" data-name="icon 14002-70"><g id="Group_22-70" data-name="Group 22-70"><path id="Path_89-70" data-name="Path 89-70" class="cls-1" d="M27.88,0a9,9,0,0,0-9.13,7.67A9,9,0,0,0,9.63,0C4.36-.1,0,3.87,0,11.12c0,9.3,10.73,13.59,18.07,20.54.26.24.2.24.2.24a.6.6,0,0,0,.48.24h0a.61.61,0,0,0,.48-.24s-.06,0,.19-.24c7.34-6.95,18.07-11.24,18.07-20.54C37.49,3.87,33.14-.1,27.88,0Z"/></g></g></g></g></svg>