<svg xmlns="http://www.w3.org/2000/svg" viewBox="0 0 180.82 44.23"><defs><style>.cls-1{fill:#82d5e8;}</style></defs><title>資產 1</title><g id="圖層_2" data-name="圖層 2"><g id="圖層_1-2" data-name="圖層 1"><path class="cls-1" d="M0,.18H22.07V7.82H8.32v11.7h11.8v7.69H8.32v16.3H0Z"/><path class="cls-1" d="M26.34,14.91h6.73l.56,5h.18c2-3.82,4.88-5.68,7.53-5.68a7,7,0,0,1,3.21.6l-1.4,7.7a9.71,9.71,0,0,0-2.88-.46c-2,0-4.32,1.36-5.71,5.13V43.53H26.34Z"/><path class="cls-1" d="M45.84,29.24c0-9.3,6.14-15,12.55-15,7.61,0,11.33,6,11.33,13.83a17.89,17.89,0,0,1-.37,3.82H53.83c.75,3.92,3.26,5.53,6.6,5.53A10.13,10.13,0,0,0,66,35.58L68.75,41a16.19,16.19,0,0,1-9.48,3.27C51.7,44.23,45.84,38.7,45.84,29.24ZM62.71,26c0-2.87-1.17-5-4.18-5-2.28,0-4.28,1.56-4.84,5Z"/><path class="cls-1" d="M73.53,29.24c0-9.3,6.13-15,12.54-15,7.62,0,11.33,6,11.33,13.83A17.26,17.26,0,0,1,97,31.86H81.52c.74,3.92,3.25,5.53,6.59,5.53a10.16,10.16,0,0,0,5.58-1.81L96.43,41A16.16,16.16,0,0,1,87,44.23C79.38,44.23,73.53,38.7,73.53,29.24ZM90.39,26c0-2.87-1.16-5-4.18-5-2.28,0-4.28,1.56-4.83,5Z"/><path class="cls-1" d="M101.21,29.24c0-9.5,6.5-15,13.89-15a11,11,0,0,1,7.71,3.06L119,23a4.82,4.82,0,0,0-3.39-1.56c-3.62,0-5.9,3-5.9,7.79S112,37,115.28,37a7.23,7.23,0,0,0,4.6-2L123,40.86a12.53,12.53,0,0,1-8.68,3.37C106.92,44.23,101.21,38.7,101.21,29.24Z"/><path class="cls-1" d="M124.62,29.24c0-9.3,6.13-15,12.54-15,7.62,0,11.34,6,11.34,13.83a17.12,17.12,0,0,1-.38,3.82H132.61c.74,3.92,3.25,5.53,6.59,5.53a10.16,10.16,0,0,0,5.58-1.81L147.52,41A16.14,16.14,0,0,1,138,44.23C130.47,44.23,124.62,38.7,124.62,29.24ZM141.48,26c0-2.87-1.16-5-4.18-5-2.28,0-4.27,1.56-4.83,5Z"/><path class="cls-1" d="M153.79,34V.63H162v33.7c0,1.91.84,2.47,1.49,2.47a3.54,3.54,0,0,0,.92-.1l1,6.76a9.93,9.93,0,0,1-4.09.77C155.65,44.23,153.79,40.11,153.79,34Z"/><path class="cls-1" d="M169.21,34V.63h8.22v33.7c0,1.91.84,2.47,1.49,2.47a3.54,3.54,0,0,0,.92-.1l1,6.76a9.93,9.93,0,0,1-4.09.77C171.07,44.23,169.21,40.11,169.21,34Z"/><g id="icon_13999" data-name="icon 13999"><path class="cls-1" d="M114.62.13c-.07-.07-.06-.07-.06-.07a.16.16,0,0,0-.13-.06.18.18,0,0,0-.13.06s0,0,0,.07c-1.58,1.79-4.5,2.8-4.5,5.37,0,.13,0,.27,0,.41a2.42,2.42,0,0,0,2.4,2.37,2.21,2.21,0,0,0,1.74-1.1c-.2,1.26-.46,2.65-.53,2.82s0,.34.1.34h1.91c.08,0,.22,0,.1-.34s-.33-1.56-.53-2.82a2.21,2.21,0,0,0,1.74,1.1,2.43,2.43,0,0,0,2.4-2.37c0-.14,0-.28,0-.41C119.12,2.93,116.2,1.92,114.62.13Z"/></g><g id="icon_14002" data-name="icon 14002"><path class="cls-1" d="M103.51.65A2.51,2.51,0,0,0,101,2.81,2.51,2.51,0,0,0,98.47.65c-1.45,0-2.65,1.09-2.65,3.13,0,2.62,3,3.83,5,5.78.07.07,0,.07,0,.07a.16.16,0,0,0,.13.06h0a.16.16,0,0,0,.13-.06s0,0,.06-.07c2-1.95,5-3.16,5-5.78C106.16,1.74,105,.62,103.51.65Z"/></g><g id="icon_14016" data-name="icon 14016"><path class="cls-1" d="M141.6,3.74a2.34,2.34,0,0,0-.38,0,2.31,2.31,0,0,0,.48-1.41,2.33,2.33,0,1,0-4.65,0,2.3,2.3,0,0,0,.47,1.41,2.33,2.33,0,0,0-2.7,2.29,2.32,2.32,0,0,0,4.11,1.49,10.62,10.62,0,0,1-.53,2.83h1.95a10.23,10.23,0,0,1-.54-2.83,2.32,2.32,0,1,0,1.79-3.81Z"/></g><g id="icon_14017" data-name="icon 14017"><path class="cls-1" d="M130.45,5.15a18.81,18.81,0,0,1-3.46-5c0-.08,0-.12-.09-.12s-.06,0-.08.12a18.83,18.83,0,0,1-3.47,5,.08.08,0,0,0,0,.06l0,.06a18.52,18.52,0,0,1,3.47,5c0,.07.05.11.08.11s.06,0,.09-.11a18.49,18.49,0,0,1,3.46-5l0-.06A.08.08,0,0,0,130.45,5.15Z"/></g></g></g></svg>