<svg xmlns="http://www.w3.org/2000/svg" viewBox="0 0 22.68 25"><defs><style>.cls-1{fill:#82d5e8;}</style></defs><title>Path 198</title><g id="圖層_2" data-name="圖層 2"><g id="圖層_1-2" data-name="圖層 1"><path id="Path_198" data-name="Path 198" class="cls-1" d="M21.8,9.42A11.23,11.23,0,0,0,11.46,2.57H8.26L9,.82A.59.59,0,0,0,8.19.07L.31,4.23A.6.6,0,0,0,.07,5a.62.62,0,0,0,.24.24L8.19,9.43A.57.57,0,0,0,9,9.19a.58.58,0,0,0,0-.5L8.26,6.93h3.2a6.86,6.86,0,1,1,.17,13.71h-.17V25A11.22,11.22,0,0,0,21.8,9.42Z"/></g></g></svg>